<svg width="719" height="719" viewBox="0 0 719 719" fill="none" xmlns="http://www.w3.org/2000/svg">
<g clip-path="url(#clip0_2_81)">
<path fill-rule="evenodd" clip-rule="evenodd" d="M481.755 -245.339C581.01 -240.623 685.416 -203.737 746.019 -126.942C802.053 -55.9359 764.403 44.8884 780.408 133.114C793.276 204.044 841.302 266.961 830.404 338.204C818.332 417.132 779.842 492.453 717.532 544.186C652.271 598.368 565.835 643.895 481.755 627.671C400.261 611.947 374.875 508.823 305.249 464.635C229.069 416.287 96.2528 442.785 61.4309 360.913C27.3184 280.71 138.957 210.257 161.308 126.209C186.067 33.1084 134.608 -79.3667 198.094 -152.976C263.865 -229.236 379.689 -250.189 481.755 -245.339Z" fill="#B9B0A7"/>
</g>
<defs>
<clipPath id="clip0_2_81">
<rect width="720" height="719" fill="white"/>
</clipPath>
</defs>
</svg>
